<svg id="a" xmlns="http://www.w3.org/2000/svg" viewBox="0 0 77.5 43.6"><polygon points="45.7 27 43 19.5 43 27 45.7 27" fill="none" stroke-width="0"/><polygon points="43 0 43 0 43 19.5 45.7 27 43 27 43 33.7 48.1 33.7 51.7 43.6 51.7 43.6 51.7 24.1 43 0" fill="#4c5664" stroke-width="0"/><path d="m77.5,8.5V0h-25.8v43.6h25.8v-26.1h-13v7.8h4.6v9.9h-9V8.5h17.4Z" fill="#010101" stroke-width="0"/><path d="m34.6,0h0s-8.9,0-8.9,0h0s-8.4,0-8.4,0v17.4h-8.8V0H0v43.6h8.4v-18.2h8.8v18.2h8.4s8.9,0,8.9,0h0s8.4,0,8.4,0V0h-8.4Zm0,35.7h-8.9V7.9h8.9v27.8h0Z" fill="#010101" stroke-width="0"/></svg>