<svg id="Layer_1" data-name="Layer 1" xmlns="http://www.w3.org/2000/svg" viewBox="0 0 228.31 50.02"><defs><style>.cls-1{fill:#e95532;}.cls-2{fill:#fff;}.cls-3{fill:#008bd5;}</style></defs><title>Untitled-2</title><path class="cls-1" d="M568,511.83c-.15-.1-.36-.26-.36-.41s.2-.31.36-.41h0c3.94-1.94,6.34-4.91,5.58-7.31s-4.5-3.43-8.8-2.61c-.2.05-.46,0-.51-.1s-.05-.36.05-.56h0c2-3.89,2.25-7.72.2-9.21s-5.63-.1-8.7,3.07a.56.56,0,0,1-.51.2.54.54,0,0,1-.26-.46h0c-.61-4.35-2.71-7.57-5.22-7.57s-4.6,3.22-5.22,7.57a.59.59,0,0,1-.26.46c-.15.05-.36-.1-.51-.2h0c-3.07-3.17-6.65-4.55-8.7-3.07s-1.84,5.32.2,9.21a.56.56,0,0,1,.05.56.59.59,0,0,1-.51.1h0c-4.35-.77-8,.26-8.8,2.61s1.64,5.37,5.58,7.31c.15.1.36.26.36.41s-.2.31-.36.41h0c-3.94,1.94-6.34,4.91-5.58,7.31s4.5,3.43,8.8,2.61c.2-.05.46,0,.51.1s.05.36-.05.56h0c-2,3.89-2.25,7.72-.2,9.21s5.63.1,8.7-3.07a.56.56,0,0,1,.51-.2.54.54,0,0,1,.26.46h0c.61,4.35,2.71,7.57,5.22,7.57s4.6-3.22,5.22-7.57a.78.78,0,0,1,.26-.46c.15-.05.36.1.51.2h0c3.07,3.17,6.65,4.55,8.7,3.07s1.84-5.32-.2-9.21a.56.56,0,0,1-.05-.56.59.59,0,0,1,.51-.1h0c4.35.77,8-.26,8.8-2.61S572,513.78,568,511.83Z" transform="translate(-526.01 -486.46)"/><path class="cls-2" d="M558.94,514.65a1.27,1.27,0,0,0-1.74,0,10.24,10.24,0,0,1-7.37,3.12,10.12,10.12,0,0,1-7.31-3.12,1.23,1.23,0,0,0-1.74,1.74,12.47,12.47,0,0,0,9.05,3.84,12.68,12.68,0,0,0,9.05-3.84A1.22,1.22,0,0,0,558.94,514.65Z" transform="translate(-526.01 -486.46)"/><path class="cls-2" d="M555.92,502.27a3.38,3.38,0,1,0,3.38,3.38A3.41,3.41,0,0,0,555.92,502.27Zm0,4.71a1.33,1.33,0,1,1,1.33-1.33A1.32,1.32,0,0,1,555.92,507Z" transform="translate(-526.01 -486.46)"/><path class="cls-2" d="M546.56,504.72l-4.35-1.79a1,1,0,1,0-.77,1.89l2.1.87-2.1.87a1,1,0,1,0,.77,1.89l4.35-1.79a1,1,0,0,0,.56-.56A1.06,1.06,0,0,0,546.56,504.72Z" transform="translate(-526.01 -486.46)"/><path class="cls-3" d="M621.7,536.49H618v-31.2h3.68v2.25a10.59,10.59,0,1,1,0,16.26Zm6.8-27.72a6.88,6.88,0,0,0-6.8,5.78v2.2a6.79,6.79,0,0,0,6.8,5.73,6.91,6.91,0,0,0,6.9-6.9A6.82,6.82,0,0,0,628.5,508.76Z" transform="translate(-526.01 -486.46)"/><path class="cls-3" d="M598,526h-3.68V505.29H598v2.35a10.57,10.57,0,0,1,6.9-2.56h.31v3.68h-.31a6.91,6.91,0,0,0-6.9,6.9Z" transform="translate(-526.01 -486.46)"/><path class="cls-3" d="M665,526h-3.68V515.67a6.9,6.9,0,1,0-13.81,0v10.38h-3.68V505.29h3.68v2.35a10.59,10.59,0,0,1,17.49,8Z" transform="translate(-526.01 -486.46)"/><path class="cls-3" d="M754.32,526h-3.68V515.67a6.9,6.9,0,1,0-13.81,0v10.38h-3.68V505.29h3.68v2.35a10.59,10.59,0,0,1,17.49,8Z" transform="translate(-526.01 -486.46)"/><path class="cls-3" d="M698.52,526.2A10.59,10.59,0,1,1,706,508.15l.2.2L703.58,511l-.2-.2a6.9,6.9,0,1,0,0,9.82l.2-.2,2.61,2.61-.2.2A10.65,10.65,0,0,1,698.52,526.2Z" transform="translate(-526.01 -486.46)"/><path class="cls-3" d="M589,526h-3.68V498.48h-8.75V494.8h21.17v3.68H589Z" transform="translate(-526.01 -486.46)"/><path class="cls-3" d="M718.42,526.2A10.59,10.59,0,1,1,729,515.62V526h-3.68v-2.35A10.4,10.4,0,0,1,718.42,526.2Zm0-17.44a6.9,6.9,0,1,0,6.9,6.9A6.91,6.91,0,0,0,718.42,508.76Z" transform="translate(-526.01 -486.46)"/><path class="cls-3" d="M613,526h-3.68V505.29H613Z" transform="translate(-526.01 -486.46)"/><path class="cls-3" d="M613,501.55h-3.68V494.8H613Z" transform="translate(-526.01 -486.46)"/><path class="cls-3" d="M641.44,505.9h-3.68V494.8h3.68Z" transform="translate(-526.01 -486.46)"/><path class="cls-3" d="M676.68,526.2h-.1a15.13,15.13,0,0,1-9.21-3.22l-.2-.15,1.74-3.38.31.26a10.92,10.92,0,0,0,7.31,2.81,5.56,5.56,0,0,0,4-1.74,4.25,4.25,0,0,0,1.13-3.22c-.26-2.66-2.81-3.94-5.27-5.17l-1.33-.66c-3.84-1.94-6.85-3.48-7.37-8.08a7.62,7.62,0,0,1,2-6.09,9.21,9.21,0,0,1,6.8-3,14.66,14.66,0,0,1,7.88,2.35l.26.15L683,500.38l-.31-.2a11,11,0,0,0-6.14-1.89,5.56,5.56,0,0,0-4,1.74,4.25,4.25,0,0,0-1.13,3.22c.26,2.66,2.81,3.94,5.27,5.17l1.33.66c3.84,1.94,6.85,3.48,7.37,8.08a7.62,7.62,0,0,1-2,6.09A8.88,8.88,0,0,1,676.68,526.2Z" transform="translate(-526.01 -486.46)"/></svg>