<svg id="Layer_1" data-name="Layer 1" xmlns="http://www.w3.org/2000/svg" viewBox="0 0 50 50"><defs><style>.cls-1{fill:#f5ae3b;}</style></defs><title>Untitled-3</title><path class="cls-1" d="M637.74,503.44h-2.08v-4.17h2.08v2.08h4.17v2.08h-2.08v2.08h-2.08Zm4.17,25v-2.08h-2.08v2.08Zm-2.08-31.25v-2.08h-4.17v2.08h2.08v2.08h2.08Zm16.67-2.08v12.5h-2.08v-2.08h-8.33V495.11Zm-2.08,8.33v-6.25h-6.25v6.25Zm-29.17,4.17h-2.08v2.08h4.17v-2.08Zm0,6.25h2.08v2.08h2.08v-6.25h-2.08v2.08h-4.17v4.17h2.08Zm10.42,2.08v4.17h2.08v-4.17ZM644,495.11h-2.08v6.25H644Zm0,10.42v-2.08h-2.08v2.08Zm6.25-4.17h2.08v-2.08h-2.08Zm-20.83-2.08h-2.08v2.08h2.08Zm4.17-4.17v10.42H623.16V495.11Zm-2.08,2.08h-6.25v6.25h6.25Zm18.75,10.42v2.08h-2.08v-2.08H644v2.08h-2.08v-2.08h-6.25v-2.08h-2.08v2.08h-2.08v2.08h2.08v4.17h2.08v-2.08h2.08v4.17h2.08v-4.17h6.25v2.08h-4.17v2.08h4.17V518h2.08v-6.25h2.08v2.08h2.08V518h2.08v-2.08h2.08v-2.08h-2.08v-2.08h-2.08v-2.08h2.08v-2.08Zm-22.92,16.67h2.08v-2.08h-2.08ZM623.16,518h10.42v10.42H623.16Zm2.08,8.33h6.25v-6.25h-6.25Zm25-6.25V518h-2.08v2.08Zm0,2.08h-2.08v2.08h-2.08v-2.08H644v-2.08h2.08V518h-4.17v-2.08h-2.08v4.17h-2.08v2.08h-2.08v6.25h2.08v-2.08h2.08v-2.08H644v4.17h2.08v-2.08h2.08v2.08h4.17v-2.08h2.08v-2.08h-4.17Zm-18.75-6.25h2.08v-2.08h-2.08Zm20.83,4.17v2.08h2.08v2.08h2.08V518h-2.08v2.08Zm4.17,8.33v-2.08h-2.08v2.08Zm0-16.67v-2.08h-2.08v2.08Zm-4.17-20.83h8.33v8.33h4.17v-12.5h-12.5ZM619,499.27v-8.33h8.33v-4.17h-12.5v12.5Zm8.33,33.33H619v-8.33h-4.17v12.5h12.5Zm33.33-8.33v8.33h-8.33v4.17h12.5v-12.5Z" transform="translate(-614.83 -486.77)"/></svg>