<svg id="Layer_1" data-name="Layer 1" xmlns="http://www.w3.org/2000/svg" viewBox="0 0 409.26 70.21"><defs><style>.cls-1{fill:#fff;}</style></defs><title>hopee</title><path class="cls-1" d="M265.45,281.9V225.27q0-4.27,5.29-4.27,5.09,0,5.09,4.27v27H338.1v-27q0-4.27,4.89-4.27,5.28,0,5.29,4.27v61.56q0,4.38-5.19,4.38-5,0-5-4.38V260.58H275.83v26.25q0,4.38-5.29,4.38-5.08,0-5.08-4.38V281.9" transform="translate(-265.45 -221)"/><path class="cls-1" d="M441.39,272.59q0,18.11-30.63,18.11H391.63q-30.43,0-30.42-18V239.52q0-17.91,30.42-17.91h19.13q30.63,0,30.63,17.91Zm-10.28-32.46q0-10.48-16.89-10.48H389.49q-17.91,0-17.91,10.48v32.36q0,10,17.91,10h24.12q17.5,0,17.51-10Z" transform="translate(-265.45 -221)"/><path class="cls-1" d="M536.94,249q0,16.28-28.09,16.28H464.59v21.57q0,4.38-5.29,4.38-5.09,0-5.09-4.38V224.77q0-3.15,3.35-3.15h51.59q27.78,0,27.78,15.37Zm-10.17-11.19q0-8.14-16.08-8.14h-46.1v27.17h45.49q16.68,0,16.69-8.35Z" transform="translate(-265.45 -221)"/><path class="cls-1" d="M557.52,252.24v21.37q0,8.85,16.79,8.86h27.1q3.86,0,3.87,4,0,4.28-3.87,4.27H574q-26.86,0-26.86-16.69V238.61q0-17,27.78-17h26.14q3.67,0,3.66,4.07t-3.66,4H578.9q-21.37,0-21.37,9Z" transform="translate(-265.45 -221)"/><circle class="cls-1" cx="313.59" cy="34.34" r="5.88"/><path class="cls-1" d="M627,252.24v21.37q0,8.85,16.79,8.86h27.1q3.86,0,3.87,4,0,4.28-3.87,4.27H643.44q-26.86,0-26.86-16.69V238.61q0-17,27.78-17H670.5q3.66,0,3.66,4.07t-3.66,4H648.32q-21.37,0-21.37,9Z" transform="translate(-265.45 -221)"/><circle class="cls-1" cx="383.02" cy="34.34" r="5.88"/></svg>